<?xml version="1.0" encoding="UTF-8"?>
<!-- Generator: Adobe Illustrator 22.1.0, SVG Export Plug-In . SVG Version: 6.00 Build 0)  -->
<svg version="1.1" id="Layer_1" xmlns="http://www.w3.org/2000/svg" xmlns:xlink="http://www.w3.org/1999/xlink" x="0px" y="0px" viewBox="0 0 64 64" style="enable-background:new 0 0 64 64;" xml:space="preserve">
<style type="text/css">
	.st0{fill:#00C8C3;}
	.st1{fill:#FFFFFF;}
</style>
<g>
	<g>
		<path class="st0" d="M58,64H6c-3.3,0-6-2.7-6-6V6c0-3.3,2.7-6,6-6h52c3.3,0,6,2.7,6,6v52C64,61.3,61.3,64,58,64z"/>
	</g>
	<g>
		<g>
			<g>
				<g>
					<polygon class="st1" points="22.2,52.9 20.2,49.5 18.2,52.9 12.9,52.9 17.6,45.1 12.9,37.3 18.2,37.3 20.2,40.7 22.2,37.3        27.5,37.3 22.9,45.1 27.5,52.9      "/>
				</g>
			</g>
			<g>
				<g>
					<polygon class="st1" points="16.5,28.3 16.5,23 11.1,23 11.1,18.1 16.5,18.1 16.5,12.8 21.4,12.8 21.4,18.1 26.7,18.1 26.7,23        21.4,23 21.4,28.3      "/>
				</g>
			</g>
			<g>
				<g>
					<polygon class="st1" points="42.3,52.9 45.4,37.3 50.4,37.3 47.3,52.9      "/>
				</g>
			</g>
			<g>
				<g>
					<rect x="37.3" y="18.1" class="st1" width="15.6" height="4.9"/>
				</g>
			</g>
		</g>
	</g>
</g>
</svg>