<?xml version="1.0" encoding="UTF-8"?>
<!-- Generator: Adobe Illustrator 22.1.0, SVG Export Plug-In . SVG Version: 6.00 Build 0)  -->
<svg version="1.1" id="Layer_1" xmlns="http://www.w3.org/2000/svg" xmlns:xlink="http://www.w3.org/1999/xlink" x="0px" y="0px" viewBox="0 0 64 64" style="enable-background:new 0 0 64 64;" xml:space="preserve">
<style type="text/css">
	.st0{fill:#00C8C3;}
</style>
<g>
	<path class="st0" d="M62,31h-1.5C60,16.4,48.5,4.6,34,3.6V2c0-1.1-0.9-2-2-2s-2,0.9-2,2v1.6C15.5,4.6,4,16.4,3.5,31H2   c-1.1,0-2,0.9-2,2s0.9,2,2,2h1.7C5.1,48.7,16.2,59.5,30,60.4V62c0,1.1,0.9,2,2,2s2-0.9,2-2v-1.6c13.8-1,24.9-11.8,26.3-25.4H62   c1.1,0,2-0.9,2-2S63.1,31,62,31z M56.5,31h-5.5c-0.5-9.3-7.7-16.9-16.9-17.9V7.6C46.2,8.6,56,18.6,56.5,31z M43,35h3.7   c-1.3,6.2-6.4,11-12.7,11.9V43c0-1.1-0.9-2-2-2s-2,0.9-2,2v3.9C23.7,46,18.6,41.2,17.3,35H21c1.1,0,2-0.9,2-2s-0.9-2-2-2h-3.9   C17.5,23.9,23,18.1,30,17.1V21c0,1.1,0.9,2,2,2s2-0.9,2-2v-3.9c7,0.9,12.5,6.7,12.9,13.9H43c-1.1,0-2,0.9-2,2S41.9,35,43,35z    M30,7.6v5.5c-9.2,1-16.5,8.5-16.9,17.9H7.5C8,18.6,17.8,8.6,30,7.6z M7.7,35h5.6c1.3,8.4,8.2,15,16.7,15.9v5.5   C18.4,55.5,9.1,46.4,7.7,35z M34,56.4v-5.5C42.5,50,49.4,43.4,50.7,35h5.6C54.9,46.4,45.6,55.5,34,56.4z"/>
</g>
</svg>